<svg width="96" height="96" viewBox="0 0 96 96" fill="none" xmlns="http://www.w3.org/2000/svg">
<path d="M11 46C11 25.0132 28.0132 8 49 8C69.9868 8 87 25.0132 87 46V96H11V46Z" fill="#3A3A3C"/>
<circle cx="60" cy="77" r="12" fill="#1BC1A3"/>
<circle cx="62" cy="50" r="22" fill="#D9D9D9"/>
<circle cx="62" cy="50" r="22" fill="#FFFEF2"/>
<path d="M11 30C11 17.8497 20.8497 8 33 8C45.1503 8 55 17.8497 55 30V96H11V30Z" fill="#009A7E"/>
<path d="M11 26.5C11 16.2827 19.2827 8 29.5 8C39.7173 8 48 16.2827 48 26.5V96H11V26.5Z" fill="#1BC1A3"/>
<path d="M65.8902 49.4668C66.7187 49.4668 67.3902 48.7952 67.3902 47.9668C67.3902 47.1384 66.7187 46.4668 65.8902 46.4668C65.0618 46.4668 64.3902 47.1384 64.3902 47.9668C64.3902 48.7952 65.0618 49.4668 65.8902 49.4668Z" fill="#1C1C1E"/>
<path d="M74.7278 49.4668C75.5562 49.4668 76.2278 48.7952 76.2278 47.9668C76.2278 47.1384 75.5562 46.4668 74.7278 46.4668C73.8993 46.4668 73.2278 47.1384 73.2278 47.9668C73.2278 48.7952 73.8993 49.4668 74.7278 49.4668Z" fill="#1C1C1E"/>
<path d="M70.3685 52.2992C70.9208 52.2992 71.3685 51.8515 71.3685 51.2992C71.3685 50.7469 70.9208 50.2992 70.3685 50.2992C69.8162 50.2992 69.3685 50.7469 69.3685 51.2992C69.3685 51.8515 69.8162 52.2992 70.3685 52.2992Z" fill="#079156"/>
<path d="M56.5 60.477C60.0899 60.477 63 57.5668 63 53.977C63 50.3871 60.0899 47.477 56.5 47.477C52.9102 47.477 50 50.3871 50 53.977C50 57.5668 52.9102 60.477 56.5 60.477Z" fill="#FFAAC1"/>
<path d="M82.7685 60.477C86.3584 60.477 89.2685 57.5668 89.2685 53.977C89.2685 50.3871 86.3584 47.477 82.7685 47.477C79.1787 47.477 76.2685 50.3871 76.2685 53.977C76.2685 57.5668 79.1787 60.477 82.7685 60.477Z" fill="#FFAAC1"/>
<circle cx="70.4024" cy="57.7932" r="3" fill="#1C1C1E"/>
<circle cx="59" cy="83" r="9" fill="#FFFEF2"/>
<path d="M67.3902 41.6516C67.3389 42.4088 67.9114 43.0631 68.6673 43.1143C69.1101 43.1444 69.5164 42.9596 69.79 42.6516C69.9203 43.2276 70.4168 43.6751 71.0362 43.7172C71.6557 43.7592 72.208 43.3827 72.4149 42.8297C72.6429 43.173 73.022 43.4097 73.4649 43.4398C74.2221 43.4911 74.8765 42.9187 74.9277 42.1629" stroke="#1C1C1E" stroke-width="0.5" stroke-linecap="round" stroke-linejoin="round"/>
</svg>
