<svg width="126" height="126" viewBox="0 0 126 126" fill="none" xmlns="http://www.w3.org/2000/svg">
<circle cx="34.75" cy="85.7653" r="24.8257" fill="#1BC1A3"/>
<circle cx="64.3492" cy="85.7653" r="24.8257" fill="#1BC1A3"/>
<circle cx="91.2499" cy="85.7653" r="24.8257" fill="#1BC1A3"/>
<circle cx="62.9999" cy="47.2427" r="37.6665" fill="#FFFEF2"/>
<circle cx="62.9999" cy="47.2427" r="37.6665" fill="url(#paint0_linear_127_1245)" fill-opacity="0.5"/>
<path d="M55.9637 46.3298C57.382 46.3298 58.5319 45.1799 58.5319 43.7616C58.5319 42.3432 57.382 41.1934 55.9637 41.1934C54.5453 41.1934 53.3955 42.3432 53.3955 43.7616C53.3955 45.1799 54.5453 46.3298 55.9637 46.3298Z" fill="#1C1C1E"/>
<path d="M71.0944 46.3298C72.5128 46.3298 73.6626 45.1799 73.6626 43.7616C73.6626 42.3432 72.5128 41.1934 71.0944 41.1934C69.6761 41.1934 68.5262 42.3432 68.5262 43.7616C68.5262 45.1799 69.6761 46.3298 71.0944 46.3298Z" fill="#1C1C1E"/>
<path d="M63.6308 51.1792C64.5764 51.1792 65.3429 50.4126 65.3429 49.4671C65.3429 48.5215 64.5764 47.7549 63.6308 47.7549C62.6852 47.7549 61.9187 48.5215 61.9187 49.4671C61.9187 50.4126 62.6852 51.1792 63.6308 51.1792Z" fill="#079156"/>
<path d="M39.8864 65.1805C46.0327 65.1805 51.0152 60.198 51.0152 54.0517C51.0152 47.9055 46.0327 42.923 39.8864 42.923C33.7402 42.923 28.7577 47.9055 28.7577 54.0517C28.7577 60.198 33.7402 65.1805 39.8864 65.1805Z" fill="#FFAAC1"/>
<path d="M84.8612 65.1805C91.0074 65.1805 95.9899 60.198 95.9899 54.0517C95.9899 47.9055 91.0074 42.923 84.8612 42.923C78.7149 42.923 73.7324 47.9055 73.7324 54.0517C73.7324 60.198 78.7149 65.1805 84.8612 65.1805Z" fill="#FFAAC1"/>
<circle cx="63.6887" cy="60.5855" r="5.13635" fill="#1C1C1E"/>
<circle cx="20.197" cy="72.9244" r="15.409" fill="#FFFEF2"/>
<circle cx="105.803" cy="72.9244" r="15.409" fill="#FFFEF2"/>
<path d="M56.8196 32.9493C56.7317 34.2456 57.7119 35.3658 59.0061 35.4536C59.7642 35.5051 60.4599 35.1887 60.9283 34.6614C61.1513 35.6475 62.0014 36.4138 63.0619 36.4857C64.1225 36.5577 65.0682 35.9131 65.4224 34.9662C65.8128 35.5541 66.4619 35.9594 67.2201 36.0108C68.5165 36.0987 69.6369 35.1186 69.7247 33.8246" stroke="#1C1C1E" stroke-width="0.5" stroke-linecap="round" stroke-linejoin="round"/>
<rect x="28.7577" y="96.894" width="68.4846" height="29.106" fill="#1BC1A3"/>
<defs>
<linearGradient id="paint0_linear_127_1245" x1="62.9999" y1="9.57613" x2="62.9999" y2="84.9092" gradientUnits="userSpaceOnUse">
<stop stop-color="#FFFEF2"/>
<stop offset="1" stop-color="#F9EDDD"/>
</linearGradient>
</defs>
</svg>
