<svg width="56" height="56" viewBox="0 0 56 56" fill="none" xmlns="http://www.w3.org/2000/svg">
<path d="M38.391 8.02282C38.2017 7.9778 38.0025 8.0021 37.8295 8.09132L36.6 8.70532L35.36 8.08532C35.2489 8.02979 35.1265 8.00088 35.0023 8.00088C34.8781 8.00088 34.7556 8.02979 34.6445 8.08532L33.389 8.70582L32.15 8.08532C32.0386 8.02938 31.9157 8.00025 31.791 8.00025C31.6664 8.00025 31.5434 8.02938 31.432 8.08532L30.2 8.70382L28.9775 8.08682C28.8664 8.0305 28.7437 8.00089 28.6191 8.00037C28.4946 7.99985 28.3716 8.02843 28.26 8.08382L27 8.70632L25.76 8.08482C25.6488 8.02931 25.5261 8.00042 25.4018 8.00042C25.2774 8.00042 25.1548 8.02931 25.0435 8.08482L23.8 8.70532L22.558 8.08482C22.3979 8.00456 22.2155 7.98035 22.04 8.01607C21.8645 8.05179 21.706 8.14537 21.59 8.28182C21.465 8.43085 21.3976 8.6198 21.4 8.81432V20.8003L21.4025 20.8028H31C31.4244 20.8028 31.8313 20.9714 32.1314 21.2714C32.4314 21.5715 32.6 21.9785 32.6 22.4028V27.6003C32.6 29.1468 34.2535 30.4003 35.8 30.4003H36.4C37.0896 30.4003 37.7509 30.1264 38.2385 29.6388C38.7261 29.1512 39 28.4899 39 27.8003V8.80032C39.0002 8.62127 38.9402 8.44734 38.8298 8.30638C38.7194 8.16542 38.5649 8.06557 38.391 8.02282ZM35 18.4003H28.625C28.193 18.4003 27.82 18.0683 27.801 17.6363C27.7962 17.5284 27.8132 17.4205 27.8512 17.3193C27.8891 17.2181 27.9472 17.1257 28.0219 17.0476C28.0965 16.9694 28.1863 16.9073 28.2856 16.8648C28.385 16.8223 28.492 16.8003 28.6 16.8003H34.975C35.407 16.8003 35.78 17.1323 35.799 17.5643C35.8039 17.6723 35.7868 17.7801 35.7489 17.8813C35.7109 17.9825 35.6528 18.0749 35.5782 18.1531C35.5035 18.2312 35.4138 18.2934 35.3144 18.3359C35.215 18.3784 35.1081 18.4003 35 18.4003ZM35 14.4003H25.425C24.993 14.4003 24.62 14.0683 24.601 13.6363C24.5962 13.5284 24.6132 13.4205 24.6512 13.3193C24.6891 13.2182 24.7472 13.1257 24.8219 13.0476C24.8965 12.9694 24.9863 12.9073 25.0856 12.8648C25.185 12.8223 25.292 12.8003 25.4 12.8003H34.975C35.407 12.8003 35.78 13.1323 35.799 13.5643C35.8039 13.6723 35.7868 13.7801 35.7489 13.8813C35.7109 13.9825 35.6528 14.0749 35.5782 14.1531C35.5035 14.2312 35.4138 14.2934 35.3144 14.3359C35.215 14.3784 35.1081 14.4003 35 14.4003Z" fill="#A0A0A6"/>
<path d="M31 27.6003V23.2003C31 22.9882 30.9157 22.7847 30.7657 22.6346C30.6156 22.4846 30.4122 22.4003 30.2 22.4003H16.6C16.1756 22.4017 15.769 22.571 15.4692 22.8713C15.1694 23.1716 15.0007 23.5785 15 24.0028C15 26.5303 15.289 27.5813 15.723 28.3813C16.4595 29.7398 17.793 30.4003 19.8 30.4003H32.084C32.1234 30.4004 32.162 30.3887 32.1949 30.3669C32.2277 30.345 32.2534 30.3139 32.2686 30.2775C32.2839 30.2411 32.288 30.201 32.2805 30.1623C32.273 30.1236 32.2542 30.0879 32.2265 30.0598C31.7535 29.5853 31 28.9503 31 27.6003Z" fill="#A0A0A6"/>
<path d="M11.595 42.536L11.091 43.268C9.25497 42.752 7.67097 41.444 7.21497 40.268C6.81897 41.468 5.19897 42.764 3.36297 43.268L2.88297 42.536C4.71897 42.188 6.75897 40.688 6.75897 38.888V38.132H7.70697V38.888C7.70697 40.688 9.86697 42.2 11.595 42.536ZM11.967 46.508H2.49897V45.74H6.75897V43.052H7.67097V45.74H11.967V46.508ZM22.3498 43.184H12.8818V42.416H22.3498V43.184ZM21.1978 47.696H14.0458V44.276H21.1978V47.696ZM20.2858 46.94V45.02H14.9578V46.94H20.2858ZM21.2818 39.596C21.2818 40.784 19.9138 41.564 17.6098 41.564C15.3178 41.564 13.9618 40.784 13.9618 39.596C13.9618 38.408 15.3178 37.628 17.6098 37.628C19.9138 37.628 21.2818 38.408 21.2818 39.596ZM20.3938 39.596C20.3938 38.816 19.2898 38.36 17.6098 38.36C15.9298 38.36 14.8498 38.816 14.8498 39.596C14.8498 40.364 15.9298 40.832 17.6098 40.832C19.2898 40.832 20.3938 40.364 20.3938 39.596ZM32.7326 46.328H23.2646V45.56H26.8766V41.768H27.7886V45.56H32.7326V46.328ZM31.4606 38.444V39.764C31.4486 41.36 31.3526 42.992 31.0406 44.324L30.1406 44.18C30.3806 43.196 30.5126 41.612 30.5126 40.232V39.212H24.2366V38.444H31.4606ZM40.1274 44.66L39.5634 45.344C38.5794 44.708 37.2474 43.388 36.8874 42.152C36.5394 43.46 35.3874 44.804 34.1754 45.584L33.6114 44.912C35.1474 44.012 36.4074 42.224 36.4074 40.244V39.164H33.9594V38.408H39.8034V39.164H37.3554V40.232C37.3554 42.188 38.6874 43.88 40.1274 44.66ZM41.3394 37.352H42.2514V47.84H41.3394V37.352ZM52.6342 47.84H51.7222V41.864H49.2742V41.096H51.7222V37.352H52.6342V47.84ZM50.3062 44.636L49.7422 45.332C48.7822 44.684 47.5702 43.352 47.1502 42.092C46.7782 43.4 45.7462 44.696 44.5342 45.572L43.9342 44.888C45.4582 43.928 46.6702 42.068 46.6702 40.208V38.264H47.6182V40.172C47.6182 42.092 48.8662 43.796 50.3062 44.636Z" fill="#A0A0A6"/>
</svg>
